<svg id="Layer_1" data-name="Layer 1" xmlns="http://www.w3.org/2000/svg" viewBox="0 0 594.77 379.27"><defs><style>.cls-1{fill:#e64747;}.cls-2{fill:none;}.cls-3{fill:#d4d4d4;}.cls-4{fill:#f2f2f2;}.cls-5{fill:#3f4551;}</style></defs><title>ball-logo</title><path class="cls-1" d="M303,204.66h0a24.7,24.7,0,0,1,15.08-31.51l28.14-9.92a24.7,24.7,0,0,0,15.08-31.51l-.75-2.13A24.7,24.7,0,0,0,329,114.52L168,171.29a24.7,24.7,0,0,0-15.08,31.51l.75,2.13a24.7,24.7,0,0,1-15.08,31.51L38.73,271.61a24.7,24.7,0,0,0-15.08,31.51l.75,2.13A24.7,24.7,0,0,0,55.9,320.33l28.68-10.11a24.7,24.7,0,0,1,31.51,15.08h0a24.7,24.7,0,0,0,31.51,15.08l305-107.49a24.7,24.7,0,0,0,15.08-31.51l-.75-2.13a24.7,24.7,0,0,0-31.51-15.08L334.49,219.75A24.7,24.7,0,0,1,303,204.66Z" transform="translate(-22.23 -50.77)"/><polygon class="cls-2" points="358.96 244.44 358.96 244.44 346.85 210.31 346.85 210.31 358.96 244.44"/><path class="cls-2" d="M461.31,298.57,390,300.48l-.11.2,71.56-1.92Z" transform="translate(-22.23 -50.77)"/><polygon class="cls-2" points="346.85 210.31 346.85 210.31 334.92 176.69 346.85 210.31"/><polygon class="cls-2" points="337.85 166.85 394.81 123.08 394.81 123.05 337.82 166.84 337.85 166.85"/><path class="cls-3" d="M489.12,223.93l-20.06,67.88L520.27,360,586,344.21a190.1,190.1,0,0,0,30.92-98.92L569.53,195.4Z" transform="translate(-22.23 -50.77)"/><path class="cls-4" d="M427.33,174.21l58.36,40.06,80.41-28.53,5.36-68.61a190.1,190.1,0,0,0-86.36-57.31L424.08,89Z" transform="translate(-22.23 -50.77)"/><path class="cls-3" d="M461.45,298.76l-71.56,1.92v0l-49.3,69.74,31.5,51.32a188.63,188.63,0,0,0,110.42,0l29.9-55.16Z" transform="translate(-22.23 -50.77)"/><path class="cls-4" d="M360.05,217.62l57-43.79L413.82,89.2,355.56,64.94a188.63,188.63,0,0,0-85.4,69.48l7.77,58.7Z" transform="translate(-22.23 -50.77)"/><path class="cls-3" d="M381.2,295.21l-12.11-34.12-120.4,42.72h0a189.52,189.52,0,0,0,27.24,50.74l56,10.34Z" transform="translate(-22.23 -50.77)"/><path class="cls-4" d="M357.15,227.46,275.51,203.1l-37.66,44.15a189.5,189.5,0,0,0,10.84,56.56l120.4-42.72Z" transform="translate(-22.23 -50.77)"/><path class="cls-5" d="M534.89,396.6q4.24-2.92,8.29-6A189.06,189.06,0,0,0,586,344.21L520.27,360l-51.21-68.23,20.06-67.88,80.41-28.53,47.41,49.89a188.9,188.9,0,0,0-9.24-63.43q-.79-2.43-1.65-4.86h0l-237,84.08,12.11,34.13h0l-49.26,69.68-56-10.34a188.76,188.76,0,0,0,37.1,37.1q4.1,3.09,8.35,6a190.67,190.67,0,0,0,50.7,24.16l-31.5-51.32,49.3-69.74v0l.11-.2,71.31-1.91.14.19,50.95,67.88L482.5,421.8c2.76-.84,5.52-1.74,8.27-2.72A189.82,189.82,0,0,0,534.89,396.6Z" transform="translate(-22.23 -50.77)"/><path class="cls-1" d="M357.15,227.46l11.93,33.63L606,177q-.86-2.42-1.78-4.81a188.9,188.9,0,0,0-32.81-55.07l-5.36,68.61-80.41,28.53-58.36-40.06L424.08,89l61-29.15a189.05,189.05,0,0,0-62.47-9q-5.11.13-10.25.54A189.83,189.83,0,0,0,364,61.72q-4.26,1.51-8.4,3.21L413.82,89.2,417,173.82v0l-57,43.77h0l-82.13-24.5-7.77-58.7a190.67,190.67,0,0,0-23.72,49.31q-1.54,4.89-2.81,9.87a188.79,188.79,0,0,0-5.78,53.66l37.66-44.15Z" transform="translate(-22.23 -50.77)"/></svg>